<svg xmlns="http://www.w3.org/2000/svg" viewBox="0 0 32 32" fill="white">
  <path d="M16 0C7.163 0 0 7.163 0 16c0 2.837.743 5.518 2.036 7.858L0 32l8.348-2.182A15.92 15.92 0 0016 32c8.837 0 16-7.163 16-16S24.837 0 16 0zm0 29.091a13.03 13.03 0 01-6.644-1.83l-.476-.285-4.953 1.294 1.322-4.828-.31-.496A13.06 13.06 0 012.909 16C2.909 8.742 8.742 2.909 16 2.909S29.091 8.742 29.091 16 23.258 29.091 16 29.091zm7.497-9.73c-.41-.205-2.426-1.198-2.803-1.334-.377-.137-.65-.205-.924.205-.274.41-1.06 1.334-1.3 1.608-.24.274-.48.308-.89.103-.41-.205-1.732-.637-3.297-2.03-1.217-1.084-2.04-2.42-2.28-2.83-.24-.41-.026-.63.18-.835.184-.183.41-.48.616-.72.205-.24.274-.41.41-.685.137-.274.068-.513-.034-.718-.103-.205-.924-2.224-1.265-3.046-.333-.8-.67-.692-.924-.705-.24-.012-.513-.015-.787-.015s-.718.103-1.094.513c-.377.41-1.437 1.402-1.437 3.42s1.47 3.97 1.675 4.243c.205.274 2.896 4.424 7.02 6.2.982.423 1.747.676 2.344.866.985.314 1.88.27 2.59.164.79-.118 2.426-.992 2.77-1.95.343-.958.343-1.778.24-1.95-.103-.17-.377-.274-.787-.48z"/>
</svg>
